<svg id="undraw_good_team_m7uu" xmlns="http://www.w3.org/2000/svg" width="761.558" height="568.183" viewBox="0 0 761.558 568.183">
  <line id="Line_9" data-name="Line 9" x2="98.273" transform="translate(266.126 174.217)" fill="none" stroke="#3f3d56" stroke-miterlimit="10" stroke-width="2"/>
  <ellipse id="Ellipse_375" data-name="Ellipse 375" cx="26.957" cy="8.463" rx="26.957" ry="8.463" transform="matrix(0.357, -0.934, 0.934, 0.357, 123.617, 301.814)" fill="#2f2e41"/>
  <path id="Path_562" data-name="Path 562" d="M1025.126,455.966c10.691,79.566-3.867,159.219-77.915,190.235a145.364,145.364,0,0,1-190.237-77.914C725.959,494.24,799.14,449.934,834.89,378.052,907.486,232.08,991.925,208.875,1025.126,455.966Z" transform="translate(-266.694 -108.397)" fill="#f2f2f2"/>
  <ellipse id="Ellipse_376" data-name="Ellipse 376" cx="116.017" cy="15.783" rx="116.017" ry="15.783" transform="translate(509.108 526.38)" fill="#3f3d56"/>
  <rect id="Rectangle_42" data-name="Rectangle 42" width="16.379" height="29.345" transform="translate(553.588 517.78) rotate(-105.453)" fill="#2f2e41"/>
  <ellipse id="Ellipse_377" data-name="Ellipse 377" cx="5.118" cy="13.649" rx="5.118" ry="13.649" transform="translate(538.972 495.621) rotate(-15.453)" fill="#2f2e41"/>
  <ellipse id="Ellipse_378" data-name="Ellipse 378" cx="26.957" cy="8.463" rx="26.957" ry="8.463" transform="translate(618.111 472.136) rotate(-82.281)" fill="#2f2e41"/>
  <circle id="Ellipse_379" data-name="Ellipse 379" cx="53.914" cy="53.914" r="53.914" transform="translate(570.928 443.114)" fill="#2f2e41"/>
  <rect id="Rectangle_43" data-name="Rectangle 43" width="16.379" height="29.345" transform="translate(553.588 508.226) rotate(-105.453)" fill="#2f2e41"/>
  <ellipse id="Ellipse_380" data-name="Ellipse 380" cx="5.118" cy="13.649" rx="5.118" ry="13.649" transform="translate(538.972 486.067) rotate(-15.453)" fill="#2f2e41"/>
  <circle id="Ellipse_381" data-name="Ellipse 381" cx="18.426" cy="18.426" r="18.426" transform="translate(620.572 447.717)" fill="#fff"/>
  <circle id="Ellipse_382" data-name="Ellipse 382" cx="6.142" cy="6.142" r="6.142" transform="translate(638.748 451.861)" fill="#3f3d56"/>
  <path id="Path_563" data-name="Path 563" d="M1036.686,779.18c19.951-1,35.231-19.66,34.129-41.681s-18.169-39.064-38.12-38.065-23.082,16.66-21.98,38.682S1016.731,780.178,1036.686,779.18Z" transform="translate(-349.583 -245.102)" fill="#0470b8"/>
  <path id="Path_564" data-name="Path 564" d="M919.164,717.18a12.284,12.284,0,0,1-1.982-24.488c6.762-.547,8.606,4.821,9.154,11.583S925.926,716.632,919.164,717.18Z" transform="translate(-316.356 -242.963)" fill="#fff"/>
  <path id="Path_565" data-name="Path 565" d="M49.464,346.056h301.98l46.818,22.809,74.6,36.342,48.773-91.32H659.65" transform="translate(-15.707 -99.675)" fill="none" stroke="#3f3d56" stroke-miterlimit="10" stroke-width="2"/>
  <circle id="Ellipse_383" data-name="Ellipse 383" cx="9.34" cy="9.34" r="9.34" transform="translate(142.718 246.596)" fill="#0470b8"/>
  <circle id="Ellipse_384" data-name="Ellipse 384" cx="9.34" cy="9.34" r="9.34" transform="translate(229.887 237.042)" fill="#0470b8"/>
  <circle id="Ellipse_385" data-name="Ellipse 385" cx="9.34" cy="9.34" r="9.34" transform="translate(373.095 259.872)" fill="#0470b8"/>
  <circle id="Ellipse_386" data-name="Ellipse 386" cx="9.34" cy="9.34" r="9.34" transform="translate(574.414 204.873)" fill="#0470b8"/>
  <circle id="Ellipse_387" data-name="Ellipse 387" cx="9.34" cy="9.34" r="9.34" transform="translate(476.868 241.193)" fill="#0470b8"/>
  <circle id="Ellipse_388" data-name="Ellipse 388" cx="10.07" cy="10.07" r="10.07" transform="translate(281.73 386.735)" fill="none" stroke="#3f3d56" stroke-miterlimit="10" stroke-width="2"/>
  <ellipse id="Ellipse_389" data-name="Ellipse 389" cx="116.017" cy="15.783" rx="116.017" ry="15.783" transform="translate(0 536.617)" fill="#3f3d56"/>
  <circle id="Ellipse_390" data-name="Ellipse 390" cx="53.914" cy="53.914" r="53.914" transform="translate(55.828 421.37)" fill="#2f2e41"/>
  <rect id="Rectangle_44" data-name="Rectangle 44" width="16.379" height="29.345" transform="translate(85.173 517.595)" fill="#2f2e41"/>
  <rect id="Rectangle_45" data-name="Rectangle 45" width="16.379" height="29.345" transform="translate(117.931 517.595)" fill="#2f2e41"/>
  <ellipse id="Ellipse_391" data-name="Ellipse 391" cx="13.649" cy="5.118" rx="13.649" ry="5.118" transform="translate(85.173 542.163)" fill="#2f2e41"/>
  <ellipse id="Ellipse_392" data-name="Ellipse 392" cx="13.649" cy="5.118" rx="13.649" ry="5.118" transform="translate(117.931 541.481)" fill="#2f2e41"/>
  <circle id="Ellipse_393" data-name="Ellipse 393" cx="18.426" cy="18.426" r="18.426" transform="translate(92.68 443.208)" fill="#fff"/>
  <circle id="Ellipse_394" data-name="Ellipse 394" cx="6.142" cy="6.142" r="6.142" transform="translate(104.964 455.492)" fill="#3f3d56"/>
  <path id="Path_566" data-name="Path 566" d="M125.844,635.718c-4.353-19.5,9.562-39.2,31.082-44s42.493,7.1,46.846,26.6S193.864,645,172.344,649.808,130.2,655.213,125.844,635.718Z" transform="translate(-68.401 -210.572)" fill="#0470b8"/>
  <circle id="Ellipse_395" data-name="Ellipse 395" cx="53.914" cy="53.914" r="53.914" transform="translate(37.402 266.453)" fill="#2f2e41"/>
  <rect id="Rectangle_46" data-name="Rectangle 46" width="16.379" height="29.345" transform="translate(66.747 362.679)" fill="#2f2e41"/>
  <rect id="Rectangle_47" data-name="Rectangle 47" width="16.379" height="29.345" transform="translate(99.505 362.679)" fill="#2f2e41"/>
  <ellipse id="Ellipse_396" data-name="Ellipse 396" cx="13.649" cy="5.118" rx="13.649" ry="5.118" transform="translate(66.747 387.247)" fill="#2f2e41"/>
  <ellipse id="Ellipse_397" data-name="Ellipse 397" cx="13.649" cy="5.118" rx="13.649" ry="5.118" transform="translate(99.505 386.565)" fill="#2f2e41"/>
  <circle id="Ellipse_398" data-name="Ellipse 398" cx="18.426" cy="18.426" r="18.426" transform="translate(74.254 288.292)" fill="#fff"/>
  <circle id="Ellipse_399" data-name="Ellipse 399" cx="6.142" cy="6.142" r="6.142" transform="translate(86.538 300.576)" fill="#3f3d56"/>
  <path id="Path_567" data-name="Path 567" d="M98.844,408.718c-4.353-19.5,9.562-39.2,31.082-44s42.493,7.1,46.846,26.6S166.864,418,145.344,422.808,103.2,428.213,98.844,408.718Z" transform="translate(-59.827 -138.488)" fill="#0470b8"/>
  <ellipse id="Ellipse_400" data-name="Ellipse 400" cx="8.463" cy="26.957" rx="8.463" ry="26.957" transform="translate(2.608 291.445) rotate(-64.626)" fill="#2f2e41"/>
  <path id="Path_568" data-name="Path 568" d="M137.043,528.611c0,5.277,13.587,15.7,28.663,15.7s29.212-14.856,29.212-20.132-14.136,1.024-29.212,1.024S137.043,523.334,137.043,528.611Z" transform="translate(-72.21 -188.794)" fill="#fff"/>
  <rect id="Rectangle_48" data-name="Rectangle 48" width="86.077" height="43.787" transform="translate(570.17 385.387)" fill="#0470b8"/>
  <rect id="Rectangle_49" data-name="Rectangle 49" width="86.077" height="43.787" transform="translate(563.433 392.497)" fill="none" stroke="#3f3d56" stroke-miterlimit="10" stroke-width="2"/>
  <rect id="Rectangle_50" data-name="Rectangle 50" width="24.568" height="24.568" transform="translate(154.645 135.808)" fill="#ed6a28"/>
  <rect id="Rectangle_51" data-name="Rectangle 51" width="24.568" height="24.568" transform="translate(148.503 127.618)" fill="none" stroke="#3f3d56" stroke-miterlimit="10" stroke-width="2"/>
  <circle id="Ellipse_401" data-name="Ellipse 401" cx="53.914" cy="53.914" r="53.914" transform="translate(564.422 75.39)" fill="#2f2e41"/>
  <rect id="Rectangle_52" data-name="Rectangle 52" width="16.379" height="29.345" transform="translate(655.274 195.435) rotate(169.739)" fill="#2f2e41"/>
  <rect id="Rectangle_53" data-name="Rectangle 53" width="16.379" height="29.345" transform="translate(623.04 201.271) rotate(169.739)" fill="#2f2e41"/>
  <ellipse id="Ellipse_402" data-name="Ellipse 402" cx="13.649" cy="5.118" rx="13.649" ry="5.118" transform="matrix(0.763, -0.646, 0.646, 0.763, 598.451, 211.279)" fill="#2f2e41"/>
  <ellipse id="Ellipse_403" data-name="Ellipse 403" cx="13.649" cy="5.118" rx="13.649" ry="5.118" transform="matrix(0.763, -0.646, 0.646, 0.763, 630.013, 205.566)" fill="#2f2e41"/>
  <circle id="Ellipse_404" data-name="Ellipse 404" cx="18.426" cy="18.426" r="18.426" transform="translate(596.135 97.69)" fill="#fff"/>
  <circle id="Ellipse_405" data-name="Ellipse 405" cx="6.142" cy="6.142" r="6.142" transform="translate(600.846 103.369)" fill="#3f3d56"/>
  <path id="Path_569" data-name="Path 569" d="M973.283,119.658c.811-19.96-16.392-36.866-38.422-37.76s-40.548,14.56-41.358,34.52,14.5,24.495,36.534,25.389S972.471,139.617,973.283,119.658Z" transform="translate(-312.414 -49.006)" fill="#0470b8"/>
  <ellipse id="Ellipse_406" data-name="Ellipse 406" cx="8.463" cy="26.957" rx="8.463" ry="26.957" transform="matrix(0.223, -0.975, 0.975, 0.223, 540.387, 121.708)" fill="#2f2e41"/>
  <ellipse id="Ellipse_407" data-name="Ellipse 407" cx="8.463" cy="26.957" rx="8.463" ry="26.957" transform="matrix(0.223, -0.975, 0.975, 0.223, 646.216, 139.311)" fill="#2f2e41"/>
  <path id="Path_570" data-name="Path 570" d="M958.462,251.341a12.284,12.284,0,1,1-24.175,4.376c-1.208-6.676,3.953-9.038,10.629-10.247S957.253,244.665,958.462,251.341Z" transform="translate(-325.319 -100.79)" fill="#fff"/>
  <line id="Line_10" data-name="Line 10" x2="62.103" y2="47.772" transform="translate(486.316 67.563)" fill="none" stroke="#3f3d56" stroke-miterlimit="10" stroke-width="2"/>
  <circle id="Ellipse_408" data-name="Ellipse 408" cx="46.407" cy="46.407" r="46.407" transform="translate(410.564)" fill="#ed6a28"/>
  <ellipse id="Ellipse_409" data-name="Ellipse 409" cx="26.957" cy="8.463" rx="26.957" ry="8.463" transform="translate(597.875 484.946) rotate(-82.281)" fill="#2f2e41"/>
  <circle id="Ellipse_410" data-name="Ellipse 410" cx="9.34" cy="9.34" r="9.34" transform="translate(37.621 527.084)" fill="#0470b8"/>
  <rect id="Rectangle_54" data-name="Rectangle 54" width="24.568" height="24.568" transform="translate(175.119 525.487)" fill="#ed6a28"/>
  <circle id="Ellipse_411" data-name="Ellipse 411" cx="9.34" cy="9.34" r="9.34" transform="translate(165.921 532.543)" fill="#0470b8"/>
  <circle id="Ellipse_412" data-name="Ellipse 412" cx="9.34" cy="9.34" r="9.34" transform="translate(305.923 164.702)" fill="#0470b8"/>
  <circle id="Ellipse_413" data-name="Ellipse 413" cx="4.46" cy="4.46" r="4.46" transform="translate(492.174 459.096)" fill="#ff6584"/>
  <line id="Line_11" data-name="Line 11" y1="50.783" transform="translate(518.484 486.801)" fill="#3f3d56" stroke="#3f3d56" stroke-miterlimit="10" stroke-width="2"/>
  <circle id="Ellipse_414" data-name="Ellipse 414" cx="7.181" cy="7.181" r="7.181" transform="translate(511.303 479.62)" fill="#3f3d56"/>
  <path id="Path_571" data-name="Path 571" d="M791.519,783.723s-1.026-22.065-22.057-19.5" transform="translate(-273.035 -265.624)" fill="#3f3d56"/>
</svg>
