<svg xmlns="http://www.w3.org/2000/svg" width="789.832" height="534.512" viewBox="0 0 789.832 534.512">
  <g id="Group_16" data-name="Group 16" transform="translate(-978 -740)">
    <g id="undraw_solution_mindset_34bi" transform="translate(978 740.031)">
      <circle id="Ellipse_415" data-name="Ellipse 415" cx="110.168" cy="110.168" r="110.168" transform="translate(0 306.508)" fill="#f2f2f2"/>
      <path id="Path_572" data-name="Path 572" d="M348.212,578.539a232.774,232.774,0,1,1,164.6-68.178A232.774,232.774,0,0,1,348.212,578.539Zm0-463.77c-127.372,0-231,103.624-231,231s103.625,231,231,231,231-103.626,231-231-103.625-231-231-231Z" transform="translate(-104.777 -112.998)" fill="#2f2e41"/>
      <path id="Path_573" data-name="Path 573" d="M396.6,331.3l-.026.013L281.843,395.2,156.214,332.383l-2.165-1.082,6.52-130.4L274.019,120.05l1.252.783,117.414,73.546Z" transform="translate(-31.888 -24.856)" fill="#0470b8"/>
      <path id="Path_574" data-name="Path 574" d="M397.135,366.374,282.408,430.257,156.779,367.443l111.285-78.019Z" transform="translate(-32.453 -59.916)" opacity="0.3"/>
      <path id="Path_575" data-name="Path 575" d="M426.21,331.5l-129.1-76.936,7.772-133.531L422.3,194.583Z" transform="translate(-61.501 -25.061)" opacity="0.1"/>
      <path id="Path_576" data-name="Path 576" d="M160,251.374l-.638-.9L274.077,169.5l121.181,75.977-.587.937L274.113,170.827Z" transform="translate(-32.987 -35.092)" fill="#f2f2f2"/>
      <path id="Path_577" data-name="Path 577" d="M157.2,308.145l-.62-.914,114.134-77.488.3.17,123.773,70.149-.546.961-123.474-69.98Z" transform="translate(-32.411 -47.562)" fill="#f2f2f2"/>
      <path id="Path_578" data-name="Path 578" d="M212.124,361.448l-.582-.939,115.027-71.276V152.594h1.1V289.849Z" transform="translate(-43.789 -31.593)" fill="#f2f2f2"/>
      <path id="Path_579" data-name="Path 579" d="M269.056,390.7l-.587-.936L379.227,320.3V184.879h1.1V320.908Z" transform="translate(-55.572 -38.276)" fill="#f2f2f2"/>
      <path id="Path_580" data-name="Path 580" d="M373.988,362.225l-128.812-71.57.018-.344,6.781-134.029,1.1.056-6.764,133.685,128.21,71.236Z" transform="translate(-50.751 -32.356)" fill="#f2f2f2"/>
      <path id="Path_581" data-name="Path 581" d="M323.261,391.937,195.9,325.193l.02-.354,7.508-134.1,1.1.062-7.488,133.741,126.735,66.414Z" transform="translate(-40.55 -39.489)" fill="#f2f2f2"/>
      <circle id="Ellipse_416" data-name="Ellipse 416" cx="44.422" cy="44.422" r="44.422" transform="translate(342.053 6.213)" fill="#2b2a2a"/>
      <rect id="Rectangle_55" data-name="Rectangle 55" width="764.066" height="1.777" transform="translate(25.765 525.067)" fill="#2f2e41"/>
      <path id="Path_582" data-name="Path 582" d="M986.137,472.89,996.291,500.7s-10.6,31.786,0,32.669,11.917-30.462,11.917-30.462l-5.739-33.552Z" transform="translate(-285.014 -186.77)" fill="#ffb9b9"/>
      <path id="Path_583" data-name="Path 583" d="M989.956,359.128l7.505,7.505v35.76s4.415,6.622,3.532,8.388-1.766,1.766-.883,3.09,1.766,2.207.883,3.09a3.311,3.311,0,0,0,0,3.973c.883.883,2.649,2.207,1.324,3.532s-3.09.441-1.324,5.3,4.856,6.181,3.973,7.947-.883,6.181-.883,6.181L985.1,446.541l-3.973-49.887Z" transform="translate(-283.976 -163.952)" fill="#d0cde1"/>
      <path id="Path_584" data-name="Path 584" d="M903.427,352.464l-22.074.883.883,9.271,19.425-3.532Z" transform="translate(-182.437 -72.965)" fill="#3f3d56"/>
      <path id="Path_585" data-name="Path 585" d="M831.949,187.953,829.3,214.442l26.93,3.973,1.987-15.231,1.987-15.231Z" transform="translate(-171.663 -38.912)" fill="#ffb9b9"/>
      <path id="Path_586" data-name="Path 586" d="M831.949,187.953,829.3,214.442l26.93,3.973,1.987-15.231,1.987-15.231Z" transform="translate(-171.663 -38.912)" opacity="0.1"/>
      <path id="Path_587" data-name="Path 587" d="M860.875,459.894l15.01,32.228s2.649,15.01,6.622,15.452,7.947-15.452,7.947-15.452l-5.3-8.388-6.181-23.84Z" transform="translate(-259.085 -184.811)" fill="#ffb9b9"/>
      <path id="Path_588" data-name="Path 588" d="M894.478,493.757l-12.361,19.425S870.2,698.161,871.963,696.837s7.505-1.766,9.713-5.3,15.893,0,15.893,0l7.947-8.388v-6.622c0-1.324,15.893-102.423,15.893-102.423v25.606s-4.856,94.035,3.09,93.153,24.281-6.181,24.281-6.181,23.4-175.709,16.335-182.331-10.154-21.633-10.154-21.633Z" transform="translate(-261.343 -189.535)" fill="#2b2a2a"/>
      <circle id="Ellipse_417" data-name="Ellipse 417" cx="21.191" cy="21.191" r="21.191" transform="translate(653.885 115.268)" fill="#ffb9b9"/>
      <path id="Path_589" data-name="Path 589" d="M884.941,339.182l-3.09-1.766s-13.686,9.271-18.1,30.021-7.505,26.047-7.505,26.047-4.415.883-1.324,3.973,3.09,2.649.441,4.415-4.415-1.766-2.649,1.766,3.973,2.649,2.207,4.856-4.856,2.207-3.09,3.973-1.766,5.739.442,7.505,3.09,2.207,3.09,5.3a15.63,15.63,0,0,0,.883,5.3H879.2s-4.415-8.388-3.09-10.154,1.766-3.532.883-4.415-3.532.883-.883-1.324,3.532-.883,2.649-3.532-2.649-1.324-.883-2.649,3.09-.883,2.207-2.207-2.649-1.324-.883-2.207,3.09,0,2.649-2.207-.883-1.324,0-2.207,10.154-30.9,10.154-31.787S884.941,339.182,884.941,339.182Z" transform="translate(-257.103 -159.458)" fill="#d0cde1"/>
      <path id="Path_590" data-name="Path 590" d="M778.895,339.659l-27.814,1.766,7.064,6.622,19.425.442Z" transform="translate(-155.471 -70.315)" fill="#3f3d56"/>
      <path id="Path_591" data-name="Path 591" d="M896.678,494.411l-5.74,10.6s17.218,2.207,23.4,4.415,22.074,5.3,22.074,5.3l3.973-15.452Z" transform="translate(-265.308 -191.956)" fill="#3f3d56"/>
      <path id="Path_592" data-name="Path 592" d="M859.641,386.73,864.5,401.3l19.425-3.974-2.208-13.686Z" transform="translate(-177.943 -79.419)" fill="#3f3d56"/>
      <path id="Path_593" data-name="Path 593" d="M954.722,317.92s-1.324-.883-4.415.883-13.244,2.649-18.1-2.649-8.388-9.713-9.712-8.83-2.208,11.037-2.208,11.037l-4.415,3.532-26.047,9.271,2.207,59.6,3.973,13.686s-3.09,10.6.883,16.776-2.207,8.388-2.207,8.388-1.324,1.766-.442,6.181-.883,20.75-.883,20.75,37.526,16.776,76.817,2.207l-4.415-16.776-2.208-37.526s2.208-6.181,1.766-8.83,13.244-39.733,13.244-39.733-2.207-18.542-13.686-22.515-13.244-7.947-13.244-7.947S956.93,319.686,954.722,317.92Z" transform="translate(-265.077 -153.206)" fill="#d0cde1"/>
      <path id="Path_594" data-name="Path 594" d="M925.979,280.251a9.716,9.716,0,0,1-1.354-6.856,20.78,20.78,0,0,0,.592-6.179,61.154,61.154,0,0,1,3.555-8.972c1.777-3.216.931-4.57,6.517-5.586s3.3-8.294,18.028-.423a4.319,4.319,0,0,0,4.486,1.693c3.047-.592,4.147,3.639,4.147,3.639s2.031-1.185,2.793.508,6.193-1.016,6.193,10.41-6.181,21.633-6.181,21.633.453-19.22-9.619-21.167-20.906-7.617-23.529-.339A55.5,55.5,0,0,1,925.979,280.251Z" transform="translate(-272.241 -141.077)" fill="#2f2e41"/>
      <ellipse id="Ellipse_418" data-name="Ellipse 418" cx="1.987" cy="2.649" rx="1.987" ry="2.649" transform="translate(690.748 138.445)" fill="#ffb9b9"/>
      <path id="Path_595" data-name="Path 595" d="M956.433,737.951l3.1,9.314s0,9.315,3.1,13.972,6.21,14.748-6.21,15.524-17.853-3.881-17.853-3.881,2.328-6.21,0-8.538,0-6.986,0-6.986l2.328-18.629Z" transform="translate(-274.955 -242.368)" fill="#2f2e41"/>
      <path id="Path_596" data-name="Path 596" d="M882.747,737.951l-3.1,9.315s0,9.315-3.1,13.972-6.21,14.748,6.21,15.524,17.853-3.881,17.853-3.881-2.329-6.21,0-8.538,0-6.986,0-6.986l-2.329-18.629Z" transform="translate(-261.752 -242.368)" fill="#2f2e41"/>
    </g>
  </g>
</svg>
