<svg xmlns="http://www.w3.org/2000/svg" width="16.404" height="18.226" viewBox="0 0 16.404 18.226">
  <path id="Icon_material-date-range" data-name="Icon material-date-range" d="M9.968,11.2H8.145v1.823H9.968Zm3.645,0H11.79v1.823h1.823Zm3.645,0H15.436v1.823h1.823Zm1.823-6.379H18.17V3H16.347V4.823H9.057V3H7.234V4.823H6.323A1.814,1.814,0,0,0,4.509,6.645L4.5,19.4a1.822,1.822,0,0,0,1.823,1.823H19.081A1.828,1.828,0,0,0,20.9,19.4V6.645A1.828,1.828,0,0,0,19.081,4.823Zm0,14.581H6.323V9.379H19.081Z" transform="translate(-4.5 -3)" fill="#caced2"/>
</svg>
