<svg xmlns="http://www.w3.org/2000/svg" width="60.023" height="59.872" viewBox="0 0 60.023 59.872">
  <path id="Icon_material-slow-motion-video" data-name="Icon material-slow-motion-video" d="M36.17,26.362l-9.176-6.89V46.55l9.176-6.89,8.876-6.649Zm0,0-9.176-6.89V46.55l9.176-6.89,8.876-6.649Zm0,0-9.176-6.89V46.55l9.176-6.89,8.876-6.649ZM30,9.152V3.075A29.932,29.932,0,0,0,14,9.724l4.272,4.3A23.892,23.892,0,0,1,30,9.152ZM14.027,18.269,9.724,14A29.932,29.932,0,0,0,3.075,30H9.152A23.892,23.892,0,0,1,14.027,18.269ZM9.152,36.02H3.075A29.932,29.932,0,0,0,9.724,52.026l4.3-4.3a23.672,23.672,0,0,1-4.874-11.7ZM14,56.3A30.03,30.03,0,0,0,30,62.947V56.87A23.892,23.892,0,0,1,18.269,52L14,56.3ZM63.1,33.011A30.132,30.132,0,0,1,36.17,62.947V56.87a24.067,24.067,0,0,0,0-47.717V3.075A30.132,30.132,0,0,1,63.1,33.011Z" transform="translate(-3.075 -3.075)" fill="#fff"/>
</svg>
